<?xml version="1.0" encoding="UTF-8"?>
<svg xmlns="http://www.w3.org/2000/svg" xmlns:xlink="http://www.w3.org/1999/xlink" width="4001" height="4001" viewBox="0 0 4001 4001">

<path fill-rule="evenodd" fill="rgb(97.264099%, 32.93457%, 12.547302%)" fill-opacity="1" d="M 1533.648438 1161.558594 L 2468.019531 1161.558594 C 2664.300781 1161.558594 2824.890625 1322.148438 2824.890625 1518.429688 L 2824.890625 2738.300781 C 2824.890625 2934.578125 2664.300781 3095.175781 2468.019531 3095.175781 L 1533.648438 3095.175781 C 1337.371094 3095.175781 1176.78125 2934.578125 1176.78125 2738.300781 L 1176.78125 1518.429688 C 1176.78125 1322.148438 1337.371094 1161.558594 1533.648438 1161.558594 "/>
<path fill-rule="evenodd" fill="rgb(80.46875%, 20.776367%, 2.748108%)" fill-opacity="1" d="M 1585.558594 3095.175781 L 2416.109375 3095.175781 L 2416.109375 3195.746094 L 1585.558594 3195.746094 L 1585.558594 3095.175781 "/>
<path fill-rule="evenodd" fill="rgb(93.359375%, 23.925781%, 3.140259%)" fill-opacity="1" d="M 2414.488281 3195.746094 L 1587.191406 3195.746094 C 1555.519531 3195.746094 1529.601562 3221.660156 1529.601562 3253.335938 C 1529.601562 3285.007812 1555.519531 3310.921875 1587.191406 3310.921875 L 2414.488281 3310.921875 C 2446.160156 3310.921875 2472.078125 3285.007812 2472.078125 3253.335938 C 2472.078125 3221.660156 2446.160156 3195.746094 2414.488281 3195.746094 "/>


<path fill-rule="evenodd" fill="rgb(93.359375%, 23.925781%, 3.140259%)" fill-opacity="1" d="M 2324.019531 3095.175781 L 2468.019531 3095.175781 C 2664.300781 3095.175781 2824.890625 2934.578125 2824.890625 2738.300781 L 2824.890625 1518.429688 C 2824.890625 1322.148438 2664.300781 1161.558594 2468.019531 1161.558594 L 2324.019531 1161.558594 C 2520.300781 1161.558594 2680.890625 1322.148438 2680.890625 1518.429688 L 2680.890625 2738.300781 C 2680.890625 2934.578125 2520.300781 3095.175781 2324.019531 3095.175781 "/>
<path fill-rule="evenodd" fill="rgb(80.46875%, 20.776367%, 2.748108%)" fill-opacity="1" d="M 2828.949219 1628.328125 L 1172.730469 1628.328125 C 1157.109375 1628.328125 1144.339844 1641.109375 1144.339844 1656.71875 C 1144.339844 1672.339844 1157.109375 1685.109375 1172.730469 1685.109375 L 2828.949219 1685.109375 C 2844.570312 1685.109375 2857.339844 1672.339844 2857.339844 1656.71875 C 2857.339844 1641.109375 2844.570312 1628.328125 2828.949219 1628.328125 "/>
<path fill-rule="evenodd" fill="rgb(80.46875%, 20.776367%, 2.748108%)" fill-opacity="1" d="M 2828.949219 2571.621094 L 1172.730469 2571.621094 C 1157.109375 2571.621094 1144.339844 2584.398438 1144.339844 2600.011719 C 1144.339844 2615.621094 1157.109375 2628.398438 1172.730469 2628.398438 L 2828.949219 2628.398438 C 2844.570312 2628.398438 2857.339844 2615.621094 2857.339844 2600.011719 C 2857.339844 2584.398438 2844.570312 2571.621094 2828.949219 2571.621094 "/>
<path fill-rule="evenodd" fill="rgb(93.359375%, 23.925781%, 3.140259%)" fill-opacity="1" d="M 1772.429688 759.269531 L 2229.238281 759.269531 L 2229.238281 1161.558594 L 1772.429688 1161.558594 L 1772.429688 759.269531 "/>
<path fill-rule="evenodd" fill="rgb(97.264099%, 32.93457%, 12.547302%)" fill-opacity="1" d="M 1643.28125 1161.558594 L 1772.429688 1161.558594 L 1772.429688 759.269531 L 1643.28125 759.269531 L 1643.28125 1161.558594 "/>
<path fill-rule="evenodd" fill="rgb(80.46875%, 20.776367%, 2.748108%)" fill-opacity="1" d="M 1772.429688 759.269531 L 1644.339844 759.269531 C 1625.121094 759.269531 1609.398438 743.550781 1609.398438 724.328125 C 1609.398438 705.121094 1625.121094 689.398438 1644.339844 689.398438 L 1772.429688 689.398438 L 1772.429688 759.269531 "/>
<path fill-rule="evenodd" fill="rgb(80.46875%, 20.776367%, 2.748108%)" fill-opacity="1" d="M 2229.238281 729.628906 L 1772.429688 729.628906 L 1772.429688 759.269531 L 2229.238281 759.269531 L 2229.238281 729.628906 "/>

<path fill-rule="evenodd" fill="rgb(29.026794%, 29.026794%, 29.026794%)" fill-opacity="1" d="M 1965.769531 895.308594 L 2019.230469 895.308594 L 2019.230469 1063.628906 L 1965.769531 1063.628906 L 1965.769531 895.308594 "/>
<path fill-rule="evenodd" fill="rgb(56.443787%, 56.443787%, 56.443787%)" fill-opacity="1" d="M 1975.828125 1063.628906 L 2009.171875 1063.628906 L 2009.171875 1089.039062 L 1975.828125 1089.039062 L 1975.828125 1063.628906 "/>
<path fill-rule="evenodd" fill="rgb(29.026794%, 29.026794%, 29.026794%)" fill-opacity="1" d="M 2019.628906 1089.039062 L 1965.371094 1089.039062 L 1965.371094 1080.839844 L 2019.628906 1080.839844 L 2019.628906 1089.039062 "/>
<path fill-rule="evenodd" fill="rgb(56.443787%, 56.443787%, 56.443787%)" fill-opacity="1" d="M 2030.480469 953.800781 L 2072.300781 953.800781 L 2072.300781 987.941406 L 2030.480469 987.941406 L 2030.480469 953.800781 "/>
<path fill-rule="evenodd" fill="rgb(45.092773%, 45.092773%, 45.092773%)" fill-opacity="1" d="M 1992.5 912.511719 C 2027.359375 912.511719 2055.621094 940.769531 2055.621094 975.628906 C 2055.621094 1010.488281 2027.359375 1038.75 1992.5 1038.75 C 1957.640625 1038.75 1929.378906 1010.488281 1929.378906 975.628906 C 1929.378906 940.769531 1957.640625 912.511719 1992.5 912.511719 "/>
<path fill-rule="evenodd" fill="rgb(56.443787%, 56.443787%, 56.443787%)" fill-opacity="1" d="M 1992.5 934.210938 C 2015.378906 934.210938 2033.921875 952.761719 2033.921875 975.628906 C 2033.921875 998.511719 2015.378906 1017.050781 1992.5 1017.050781 C 1969.621094 1017.050781 1951.078125 998.511719 1951.078125 975.628906 C 1951.078125 952.761719 1969.621094 934.210938 1992.5 934.210938 "/>
<path fill-rule="evenodd" fill="rgb(97.264099%, 32.93457%, 12.547302%)" fill-opacity="1" d="M 2358.398438 1161.558594 L 2229.238281 1161.558594 L 2229.238281 759.269531 L 2358.398438 759.269531 L 2358.398438 1161.558594 "/>
<path fill-rule="evenodd" fill="rgb(80.46875%, 20.776367%, 2.748108%)" fill-opacity="1" d="M 2229.238281 759.269531 L 2357.339844 759.269531 C 2376.550781 759.269531 2392.269531 743.550781 2392.269531 724.328125 C 2392.269531 705.121094 2376.550781 689.398438 2357.339844 689.398438 L 2229.238281 689.398438 L 2229.238281 759.269531 "/>


</svg>
