<?xml version="1.0" encoding="UTF-8"?>
<svg xmlns="http://www.w3.org/2000/svg" xmlns:xlink="http://www.w3.org/1999/xlink" width="4001" height="4001" viewBox="0 0 4001 4001">
<path fill-rule="evenodd" fill="rgb(100%, 100%, 100%)" fill-opacity="1" d="M 0.835938 0.160156 L 4000.839844 0.160156 L 4000.839844 4000.160156 L 0.835938 4000.160156 L 0.835938 0.160156 "/>
<path fill-rule="evenodd" fill="rgb(97.264099%, 32.93457%, 12.547302%)" fill-opacity="1" d="M 1533.648438 1161.558594 L 2468.019531 1161.558594 C 2664.300781 1161.558594 2824.890625 1322.148438 2824.890625 1518.429688 L 2824.890625 2738.300781 C 2824.890625 2934.578125 2664.300781 3095.175781 2468.019531 3095.175781 L 1533.648438 3095.175781 C 1337.371094 3095.175781 1176.78125 2934.578125 1176.78125 2738.300781 L 1176.78125 1518.429688 C 1176.78125 1322.148438 1337.371094 1161.558594 1533.648438 1161.558594 "/>
<path fill-rule="evenodd" fill="rgb(80.46875%, 20.776367%, 2.748108%)" fill-opacity="1" d="M 1585.558594 3095.175781 L 2416.109375 3095.175781 L 2416.109375 3195.746094 L 1585.558594 3195.746094 L 1585.558594 3095.175781 "/>
<path fill-rule="evenodd" fill="rgb(93.359375%, 23.925781%, 3.140259%)" fill-opacity="1" d="M 2414.488281 3195.746094 L 1587.191406 3195.746094 C 1555.519531 3195.746094 1529.601562 3221.660156 1529.601562 3253.335938 C 1529.601562 3285.007812 1555.519531 3310.921875 1587.191406 3310.921875 L 2414.488281 3310.921875 C 2446.160156 3310.921875 2472.078125 3285.007812 2472.078125 3253.335938 C 2472.078125 3221.660156 2446.160156 3195.746094 2414.488281 3195.746094 "/>
<path fill-rule="evenodd" fill="rgb(100%, 100%, 100%)" fill-opacity="1" d="M 1682.890625 3121.941406 L 1882.429688 3121.941406 C 1895.359375 3121.941406 1905.949219 3132.523438 1905.949219 3145.460938 C 1905.949219 3158.398438 1895.359375 3168.980469 1882.429688 3168.980469 L 1682.890625 3168.980469 C 1669.949219 3168.980469 1659.359375 3158.398438 1659.359375 3145.460938 C 1659.359375 3132.523438 1669.949219 3121.941406 1682.890625 3121.941406 "/>
<path fill-rule="evenodd" fill="rgb(100%, 100%, 100%)" fill-opacity="1" d="M 2119.25 3121.941406 L 2318.789062 3121.941406 C 2331.730469 3121.941406 2342.308594 3132.523438 2342.308594 3145.460938 C 2342.308594 3158.398438 2331.730469 3168.980469 2318.789062 3168.980469 L 2119.25 3168.980469 C 2106.308594 3168.980469 2095.730469 3158.398438 2095.730469 3145.460938 C 2095.730469 3132.523438 2106.308594 3121.941406 2119.25 3121.941406 "/>
<path fill-rule="evenodd" fill="rgb(93.359375%, 23.925781%, 3.140259%)" fill-opacity="1" d="M 2324.019531 3095.175781 L 2468.019531 3095.175781 C 2664.300781 3095.175781 2824.890625 2934.578125 2824.890625 2738.300781 L 2824.890625 1518.429688 C 2824.890625 1322.148438 2664.300781 1161.558594 2468.019531 1161.558594 L 2324.019531 1161.558594 C 2520.300781 1161.558594 2680.890625 1322.148438 2680.890625 1518.429688 L 2680.890625 2738.300781 C 2680.890625 2934.578125 2520.300781 3095.175781 2324.019531 3095.175781 "/>
<path fill-rule="evenodd" fill="rgb(80.46875%, 20.776367%, 2.748108%)" fill-opacity="1" d="M 2828.949219 1628.328125 L 1172.730469 1628.328125 C 1157.109375 1628.328125 1144.339844 1641.109375 1144.339844 1656.71875 C 1144.339844 1672.339844 1157.109375 1685.109375 1172.730469 1685.109375 L 2828.949219 1685.109375 C 2844.570312 1685.109375 2857.339844 1672.339844 2857.339844 1656.71875 C 2857.339844 1641.109375 2844.570312 1628.328125 2828.949219 1628.328125 "/>
<path fill-rule="evenodd" fill="rgb(80.46875%, 20.776367%, 2.748108%)" fill-opacity="1" d="M 2828.949219 2571.621094 L 1172.730469 2571.621094 C 1157.109375 2571.621094 1144.339844 2584.398438 1144.339844 2600.011719 C 1144.339844 2615.621094 1157.109375 2628.398438 1172.730469 2628.398438 L 2828.949219 2628.398438 C 2844.570312 2628.398438 2857.339844 2615.621094 2857.339844 2600.011719 C 2857.339844 2584.398438 2844.570312 2571.621094 2828.949219 2571.621094 "/>
<path fill-rule="evenodd" fill="rgb(93.359375%, 23.925781%, 3.140259%)" fill-opacity="1" d="M 1772.429688 759.269531 L 2229.238281 759.269531 L 2229.238281 1161.558594 L 1772.429688 1161.558594 L 1772.429688 759.269531 "/>
<path fill-rule="evenodd" fill="rgb(97.264099%, 32.93457%, 12.547302%)" fill-opacity="1" d="M 1643.28125 1161.558594 L 1772.429688 1161.558594 L 1772.429688 759.269531 L 1643.28125 759.269531 L 1643.28125 1161.558594 "/>
<path fill-rule="evenodd" fill="rgb(80.46875%, 20.776367%, 2.748108%)" fill-opacity="1" d="M 1772.429688 759.269531 L 1644.339844 759.269531 C 1625.121094 759.269531 1609.398438 743.550781 1609.398438 724.328125 C 1609.398438 705.121094 1625.121094 689.398438 1644.339844 689.398438 L 1772.429688 689.398438 L 1772.429688 759.269531 "/>
<path fill-rule="evenodd" fill="rgb(80.46875%, 20.776367%, 2.748108%)" fill-opacity="1" d="M 2229.238281 729.628906 L 1772.429688 729.628906 L 1772.429688 759.269531 L 2229.238281 759.269531 L 2229.238281 729.628906 "/>
<path fill-rule="evenodd" fill="rgb(100%, 100%, 100%)" fill-opacity="1" d="M 1889.941406 830.730469 L 2111.730469 830.730469 C 2136.039062 830.730469 2155.929688 850.621094 2155.929688 874.929688 L 2155.929688 1044.839844 C 2155.929688 1069.148438 2136.039062 1089.039062 2111.730469 1089.039062 L 1889.941406 1089.039062 C 1865.628906 1089.039062 1845.738281 1069.148438 1845.738281 1044.839844 L 1845.738281 874.929688 C 1845.738281 850.621094 1865.628906 830.730469 1889.941406 830.730469 "/>
<path fill-rule="evenodd" fill="rgb(29.026794%, 29.026794%, 29.026794%)" fill-opacity="1" d="M 1965.769531 895.308594 L 2019.230469 895.308594 L 2019.230469 1063.628906 L 1965.769531 1063.628906 L 1965.769531 895.308594 "/>
<path fill-rule="evenodd" fill="rgb(56.443787%, 56.443787%, 56.443787%)" fill-opacity="1" d="M 1975.828125 1063.628906 L 2009.171875 1063.628906 L 2009.171875 1089.039062 L 1975.828125 1089.039062 L 1975.828125 1063.628906 "/>
<path fill-rule="evenodd" fill="rgb(29.026794%, 29.026794%, 29.026794%)" fill-opacity="1" d="M 2019.628906 1089.039062 L 1965.371094 1089.039062 L 1965.371094 1080.839844 L 2019.628906 1080.839844 L 2019.628906 1089.039062 "/>
<path fill-rule="evenodd" fill="rgb(56.443787%, 56.443787%, 56.443787%)" fill-opacity="1" d="M 2030.480469 953.800781 L 2072.300781 953.800781 L 2072.300781 987.941406 L 2030.480469 987.941406 L 2030.480469 953.800781 "/>
<path fill-rule="evenodd" fill="rgb(45.092773%, 45.092773%, 45.092773%)" fill-opacity="1" d="M 1992.5 912.511719 C 2027.359375 912.511719 2055.621094 940.769531 2055.621094 975.628906 C 2055.621094 1010.488281 2027.359375 1038.75 1992.5 1038.75 C 1957.640625 1038.75 1929.378906 1010.488281 1929.378906 975.628906 C 1929.378906 940.769531 1957.640625 912.511719 1992.5 912.511719 "/>
<path fill-rule="evenodd" fill="rgb(56.443787%, 56.443787%, 56.443787%)" fill-opacity="1" d="M 1992.5 934.210938 C 2015.378906 934.210938 2033.921875 952.761719 2033.921875 975.628906 C 2033.921875 998.511719 2015.378906 1017.050781 1992.5 1017.050781 C 1969.621094 1017.050781 1951.078125 998.511719 1951.078125 975.628906 C 1951.078125 952.761719 1969.621094 934.210938 1992.5 934.210938 "/>
<path fill-rule="evenodd" fill="rgb(97.264099%, 32.93457%, 12.547302%)" fill-opacity="1" d="M 2358.398438 1161.558594 L 2229.238281 1161.558594 L 2229.238281 759.269531 L 2358.398438 759.269531 L 2358.398438 1161.558594 "/>
<path fill-rule="evenodd" fill="rgb(80.46875%, 20.776367%, 2.748108%)" fill-opacity="1" d="M 2229.238281 759.269531 L 2357.339844 759.269531 C 2376.550781 759.269531 2392.269531 743.550781 2392.269531 724.328125 C 2392.269531 705.121094 2376.550781 689.398438 2357.339844 689.398438 L 2229.238281 689.398438 L 2229.238281 759.269531 "/>
<path fill-rule="evenodd" fill="rgb(100%, 100%, 100%)" fill-opacity="1" d="M 1963.511719 2035.199219 C 1952.078125 2002.75 1942.238281 1936.101562 1904.941406 1926.03125 C 1926.128906 1991.289062 1902.398438 2006.78125 1916.480469 2076.558594 C 1875.660156 2055.191406 1867.589844 1996.929688 1830.851562 1973.960938 C 1843.121094 2091.101562 1824.878906 2017.960938 1865.730469 2148.941406 C 1823.878906 2141.421875 1805.351562 2119.378906 1785.589844 2099.109375 C 1799.101562 2219.449219 1868.648438 2287.070312 1948.03125 2311.171875 C 1913.398438 2292.601562 1889.019531 2270.21875 1886.851562 2237.039062 C 1903.308594 2252.851562 1922.359375 2259.539062 1954.378906 2261.878906 C 1938.410156 2226.328125 1917.78125 2214.75 1927.648438 2165.03125 C 1948.191406 2191.03125 1942.148438 2198.761719 1980.660156 2212.121094 C 1978.871094 2147.539062 2008.078125 2098.429688 2007.390625 2040.191406 C 2050.878906 2148.480469 2051.148438 2131.738281 2052.421875 2210.761719 C 2074.03125 2194.199219 2098.839844 2174.851562 2119.539062 2152.230469 C 2097.839844 2238.851562 2095.328125 2229.851562 2073.730469 2263.269531 C 2104.371094 2264.039062 2117.03125 2255.058594 2139.859375 2245.460938 C 2124.421875 2279.179688 2116.640625 2294.359375 2092.410156 2309.210938 C 2165.039062 2284.671875 2220.488281 2223.929688 2215.808594 2135.460938 C 2194.289062 2152.058594 2195.359375 2157.398438 2161.230469 2163.140625 C 2193.949219 2121.980469 2217.910156 2147.769531 2198.039062 2012.140625 C 2165.230469 2052.621094 2174.648438 2085.898438 2119.75 2081.148438 C 2137.839844 2026.070312 2139.308594 1959.839844 2113.019531 1912.398438 C 2108.570312 1977.089844 2093.78125 1998.71875 2065.191406 2036.449219 C 2076.210938 1963.121094 2026.058594 1864.039062 1997.261719 1793.800781 C 1974.578125 1875.710938 1991.75 1988.421875 1963.511719 2035.199219 "/>
<path fill-rule="evenodd" fill="rgb(100%, 100%, 100%)" fill-opacity="1" d="M 2227.78125 2370.5 L 1773.890625 2370.5 L 1773.890625 2335.578125 L 2227.78125 2335.578125 L 2227.78125 2370.5 "/>
</svg>
